<?xml version="1.0" encoding="iso-8859-1"?>
<!-- Generator: Adobe Illustrator 19.0.0, SVG Export Plug-In . SVG Version: 6.00 Build 0)  -->
<svg version="1.1" id="Capa_1" xmlns="http://www.w3.org/2000/svg" xmlns:xlink="http://www.w3.org/1999/xlink" x="0px" y="0px"
	 viewBox="0 0 512 512" style="enable-background:new 0 0 512 512;" xml:space="preserve">
<g>
	<g>
		<g>
			<path d="M256,0C114.615,0,0,114.615,0,256s114.615,256,256,256s256-114.615,256-256S397.385,0,256,0z M277.333,467.2v-40.533
				h-42.667V467.2C134.49,456.672,55.328,377.51,44.8,277.333h40.533v-42.667H44.8C55.328,134.49,134.49,55.328,234.667,44.8v40.533
				h42.667V44.8C377.51,55.328,456.672,134.49,467.2,234.667h-40.533v42.667H467.2C456.672,377.51,377.51,456.672,277.333,467.2z"/>
			<path d="M366.741,129.629c-4.157-1.107-8.552-0.931-12.608,0.504L202.667,192c-5.955,2.155-10.645,6.845-12.8,12.8
				l-59.733,149.333c-4.378,10.938,0.94,23.355,11.878,27.733c5.089,2.037,10.766,2.037,15.855,0L309.333,320
				c5.955-2.155,10.645-6.845,12.8-12.8l59.733-151.467C384.898,144.348,378.126,132.661,366.741,129.629z M285.867,283.733
				l-98.133,40.533l38.4-96l96-38.4L285.867,283.733z"/>
			<circle cx="255.374" cy="256" r="21.333"/>
		</g>
	</g>
</g>
<g>
</g>
<g>
</g>
<g>
</g>
<g>
</g>
<g>
</g>
<g>
</g>
<g>
</g>
<g>
</g>
<g>
</g>
<g>
</g>
<g>
</g>
<g>
</g>
<g>
</g>
<g>
</g>
<g>
</g>
</svg>
