<?xml version="1.0" encoding="iso-8859-1"?>
<!-- Generator: Adobe Illustrator 19.0.0, SVG Export Plug-In . SVG Version: 6.00 Build 0)  -->
<svg version="1.1" id="Capa_1" xmlns="http://www.w3.org/2000/svg" xmlns:xlink="http://www.w3.org/1999/xlink" x="0px" y="0px"
	 viewBox="0 0 512 512" style="enable-background:new 0 0 512 512;" xml:space="preserve">
<g>
	<g>
		<path d="M256,0C114.615,0,0,114.615,0,256s114.615,256,256,256s256-114.615,256-256S397.385,0,256,0z M379.733,83.2
			c18.899,13.597,35.469,30.168,49.067,49.067l-55.467,32l-25.6-25.6L379.733,83.2z M362.667,256
			c0,58.91-47.756,106.667-106.667,106.667S149.333,314.91,149.333,256S197.09,149.333,256,149.333S362.667,197.09,362.667,256z
			 M343.467,61.867l-32,55.467c-35.563-14.467-75.371-14.467-110.933,0l-32-55.467C224.104,36.583,287.896,36.583,343.467,61.867z
			 M132.267,83.2l32,55.467l-25.6,25.6l-55.467-32C96.797,113.368,113.368,96.797,132.267,83.2z M61.867,343.467
			c-12.578-27.448-19.126-57.274-19.2-87.467c0.074-30.193,6.622-60.019,19.2-87.467l55.467,32
			c-14.467,35.563-14.467,75.371,0,110.933L61.867,343.467z M132.267,428.8c-18.899-13.597-35.469-30.168-49.067-49.067l55.467-32
			l25.6,25.6L132.267,428.8z M168.533,450.133l32-55.467c35.563,14.467,75.371,14.467,110.933,0l32,55.467
			C287.896,475.417,224.104,475.417,168.533,450.133z M379.733,428.8L379.733,428.8l-32-55.467l25.6-25.6l55.467,32
			C415.203,398.632,398.632,415.203,379.733,428.8z M394.667,311.467c14.467-35.563,14.467-75.371,0-110.933l55.467-32
			c12.578,27.448,19.126,57.274,19.2,87.467c-0.074,30.193-6.622,60.019-19.2,87.467L394.667,311.467z"/>
	</g>
</g>
<g>
</g>
<g>
</g>
<g>
</g>
<g>
</g>
<g>
</g>
<g>
</g>
<g>
</g>
<g>
</g>
<g>
</g>
<g>
</g>
<g>
</g>
<g>
</g>
<g>
</g>
<g>
</g>
<g>
</g>
</svg>
