<?xml version="1.0" encoding="iso-8859-1"?>
<!-- Generator: Adobe Illustrator 19.0.0, SVG Export Plug-In . SVG Version: 6.00 Build 0)  -->
<svg version="1.1" id="Layer_1" xmlns="http://www.w3.org/2000/svg" xmlns:xlink="http://www.w3.org/1999/xlink" x="0px" y="0px"
	 viewBox="0 0 512.002 512.002" style="enable-background:new 0 0 512.002 512.002;" xml:space="preserve">
<g>
	<g>
		<g>
			<path d="M366.926,68.268c0.691,0,1.382-0.077,2.082-0.256l136.533-34.133c4.565-1.143,7.347-5.777,6.204-10.351
				c-1.143-4.565-5.786-7.339-10.351-6.204L364.861,51.457c-4.565,1.143-7.347,5.777-6.204,10.351
				C359.63,65.682,363.103,68.268,366.926,68.268z"/>
			<path d="M162.134,136.534h187.733c4.71,0,8.533-3.823,8.533-8.533s-3.823-8.533-8.533-8.533h-8.533V76.801
				c0-0.563-0.051-1.118-0.171-1.673c-9.685-48.452-39.927-75.127-85.163-75.127c-45.235,0-75.477,26.675-85.171,75.127
				c-0.111,0.555-0.162,1.109-0.162,1.673v42.667h-8.533c-4.71,0-8.533,3.823-8.533,8.533S157.424,136.534,162.134,136.534z
				 M273.068,119.468h-34.133V85.334h34.133V119.468z M324.268,119.468h-34.133V85.334h34.133V119.468z M256.001,17.068
				c40.866,0,58.453,25.89,65.903,51.2H190.098C197.548,42.958,215.135,17.068,256.001,17.068z M187.734,85.334h34.133v34.133
				h-34.133V85.334z"/>
			<path d="M505.541,119.724L369.008,85.59c-4.557-1.143-9.207,1.638-10.351,6.204c-1.143,4.582,1.638,9.207,6.204,10.351
				l136.533,34.133c0.7,0.179,1.391,0.256,2.082,0.256c3.823,0,7.296-2.586,8.269-6.46
				C512.888,125.501,510.107,120.867,505.541,119.724z"/>
			<path d="M180.14,153.652c-4.659-0.563-8.9,2.859-9.421,7.543l-34.133,307.2c-0.521,4.685,2.859,8.9,7.544,9.421
				c0.316,0.034,0.631,0.051,0.947,0.051c4.292,0,7.987-3.226,8.474-7.595l6.238-56.124c22.545-21.137,53.257-21.615,53.547-21.615
				h85.333c1.178,0,25.02-0.299,49.212-17.442l10.573,95.181c0.486,4.369,4.181,7.595,8.474,7.595c0.316,0,0.631-0.017,0.947-0.051
				c4.685-0.521,8.064-4.736,7.543-9.421l-21.7-195.251c0.008-0.119-0.034-0.239-0.034-0.358l-12.399-111.59
				c-0.521-4.693-4.787-8.124-9.421-7.543c-4.685,0.521-8.064,4.745-7.543,9.421l1.417,12.698
				c-21.658,19.934-43.238,20.489-44.134,20.497h-51.2c-1.203,0-24.508,0.213-48.094,15.138l5.376-48.333
				C188.204,158.397,184.824,154.173,180.14,153.652z M345.652,355.022c-21.956,19.925-46.763,20.446-46.985,20.446h-85.333
				c-1.297,0-26.598,0.213-50.953,15.258l6.895-62.063c22.494-20.983,52.309-21.461,52.591-21.461h68.267
				c1.143,0,24.32-0.299,48.282-17.314L345.652,355.022z M230.401,213.334h51.2c1.067,0,22.827-0.299,46.379-17.382l8.201,73.865
				c-21.854,19.797-45.833,20.318-46.046,20.318h-68.267c-1.271,0-25.899,0.213-49.98,15.113l7.799-70.212
				C202.096,213.838,230.145,213.334,230.401,213.334z"/>
			<path d="M418.134,494.934h-128v-59.733c0-4.71-3.823-8.533-8.533-8.533h-51.2c-4.71,0-8.533,3.823-8.533,8.533v59.733h-128
				c-4.71,0-8.533,3.823-8.533,8.533s3.823,8.533,8.533,8.533h136.533c4.71,0,8.533-3.823,8.533-8.533v-59.733h34.133v59.733
				c0,4.71,3.823,8.533,8.533,8.533h136.533c4.71,0,8.533-3.823,8.533-8.533S422.845,494.934,418.134,494.934z"/>
			<path d="M6.461,33.878l136.533,34.133c0.7,0.179,1.391,0.256,2.082,0.256c3.823,0,7.296-2.586,8.269-6.46
				c1.143-4.574-1.638-9.207-6.204-10.351L10.608,17.324C6.051,16.189,1.4,18.962,0.257,23.527
				C-0.887,28.101,1.895,32.735,6.461,33.878z"/>
			<path d="M153.345,91.794c-1.143-4.565-5.786-7.347-10.351-6.204L6.461,119.724c-4.565,1.143-7.347,5.777-6.204,10.351
				c0.973,3.874,4.446,6.46,8.269,6.46c0.691,0,1.382-0.077,2.082-0.256l136.533-34.133
				C151.706,101.001,154.488,96.376,153.345,91.794z"/>
		</g>
	</g>
</g>
<g>
</g>
<g>
</g>
<g>
</g>
<g>
</g>
<g>
</g>
<g>
</g>
<g>
</g>
<g>
</g>
<g>
</g>
<g>
</g>
<g>
</g>
<g>
</g>
<g>
</g>
<g>
</g>
<g>
</g>
</svg>
