<?xml version="1.0" encoding="utf-8"?>
<!-- Generator: Adobe Illustrator 22.1.0, SVG Export Plug-In . SVG Version: 6.00 Build 0)  -->
<svg version="1.1" xmlns="http://www.w3.org/2000/svg" xmlns:xlink="http://www.w3.org/1999/xlink" x="0px" y="0px"
	 viewBox="0 0 246.3 84" style="enable-background:new 0 0 246.3 84;" xml:space="preserve">
<style type="text/css">
	.st0{display:none;}
	.st1{fill:#FFFFFF;}
	.st2{fill:#FFFFFF;stroke:#000000;stroke-miterlimit:10;}
	.st3{stroke:#000000;stroke-width:0.5;stroke-miterlimit:10;}
</style>
<g id="Capa_1" class="st0">
	
		<image style="display:inline;overflow:visible;" width="400" height="481" xlink:href="1BA71E1D.jpg"  transform="matrix(0.3617 0 0 0.3617 25 -31)">
	</image>
</g>
<g id="Capa_2">
	<g>
		<g>
			<path class="st1" d="M48,73.9c-0.9-2.7-11.1-7.1-18.2-9.8c-7.1-2.7-8.4-9.3-8.4-9.3L20,57.1c-3.6-4,2.2-16.9,2.2-16.9
				c0,5.3,4.9,12,4.9,12l-1.8,0.9c4.4,10.2,20.4,8.9,20.4,8.9h4.6c0,0,16,1.3,20.4-8.9L69,52.2c0,0,4.9-6.7,4.9-12
				c0,0,5.8,12.9,2.2,16.9l-1.3-2.2c0,0-1.3,6.7-8.4,9.3c-7.1,2.7-17.3,7.1-18.2,9.8H48z"/>
		</g>
		<g>
			<polyline class="st1" points="43.9,56.9 44.4,54.3 44.9,24 24.2,24 20.5,27.7 22.1,18.1 44.9,18.1 51,18.1 73.9,18.1 75.5,27.7 
				71.7,24 51,24 51.6,54.3 52.1,56.9 43.6,56.9 			"/>
		</g>
	</g>
	<path class="st1" d="M86.3,50.4l0-3.3c0-3.1-0.1-6.2-0.2-9.4l0,0c-0.3-0.1-0.8-0.2-1.6-0.2c-0.8,0-1.2,0-1.3,0
		c-0.1-0.2-0.1-0.7-0.1-1.7c0-0.9,0-1.6,0-2.1l0,0c1.1,0,2.2,0,3.1,0c0.9,0,2,0,3.2,0c1.2,0,2.5,0.1,3.9,0.3c0,0.5,0,1.1,0,1.8
		c0,0.6,0,1.3-0.1,2c-0.2,0-0.5,0-1,0c-0.5,0-1.1,0-1.9,0h-0.1c0,0.1,0,0.8,0,2.2c0,1.4,0,5,0.1,10.6v0c-0.4,0.1-0.9,0.1-1.7,0.1
		l-0.6,0c-0.8,0-1.3,0-1.7,0.1C86.3,50.7,86.3,50.6,86.3,50.4z"/>
	<path class="st1" d="M94,38.6l1.3-0.1c0.1,0,0.2,0,0.3,0.1c0,0.2,0,0.3,0,0.4c0,0.1,0,0.2,0,0.4c0.1-0.1,0.5-0.2,1.1-0.5
		c0.8-0.2,1.5-0.4,2.2-0.4s1.1,0,1.2,0v4.3c-0.8-0.3-1.4-0.4-1.6-0.4c-0.4,0-0.7-0.1-1.1-0.1c-0.4,0-0.8,0.1-1.1,0.2
		c-0.5,0.2-0.7,0.6-0.7,1.4c0,0,0,0.6,0,1.6c0,1,0,2.6,0,4.9v0.1c-0.1,0.1-0.5,0.1-1,0.1l-1.5,0c-0.3,0-0.5,0-0.7,0l-0.1-9.4
		c0-1.5,0-2.4,0-2.7c0.3,0,0.6,0,0.8,0L94,38.6z"/>
	<path class="st1" d="M107.7,50.6l-1,0.1c-0.2-0.1-0.3-0.2-0.3-0.4c0-0.2,0-0.4,0-0.6c0-0.2,0-0.3,0-0.4c-0.4,0.4-0.9,0.7-1.5,1
		c-0.6,0.3-1.2,0.4-1.7,0.4c-0.8,0-1.4-0.4-2-1.1c-1-1.4-1.5-3.1-1.5-5.4c0-1.6,0.4-2.9,1.2-4c0.8-1,1.7-1.6,2.9-1.6
		c0.5,0,0.9,0,1.1,0c0.2,0,0.5,0.1,0.8,0.3c0.3,0.2,0.5,0.4,0.6,0.8c0-0.2,0-0.4,0-0.7c0-0.3,0.1-0.4,0.1-0.5c0,0,0.4,0,1.2,0
		c1.1,0,1.9,0.1,2.4,0.1c0,0.3,0,0.5,0,0.6v0.2c0,0.4,0,1,0,1.7l0,5.7c0,1.3,0,2.1,0,2.5c0,0.4,0,0.7,0,0.9c0,0.2-0.1,0.4-0.3,0.4
		h-0.3L107.7,50.6z M105.1,41.9c-0.6,0-1.1,0.1-1.5,0.4c-0.4,0.3-0.6,0.6-0.7,1c-0.1,0.4-0.1,0.9-0.1,1.5c0,0.6,0.2,1.2,0.6,1.7
		c0.4,0.5,0.9,0.8,1.6,0.8c0.5,0,0.9-0.1,1.2-0.4c0.2-0.2,0.3-0.5,0.3-0.9c0-0.4,0-0.8,0-1.1v-0.5c0-1.2-0.1-2-0.2-2.2
		C106,42,105.7,41.9,105.1,41.9z"/>
	<path class="st1" d="M121.4,46.8l1.8,0c0,0.5,0.2,0.8,0.7,1.1c0.3,0.2,0.5,0.2,0.7,0.2c0.8,0,1.2-0.4,1.2-1.2c0-0.1,0-0.2,0-0.4
		c0-0.2-0.1-0.4-0.3-0.6c-0.2-0.2-0.4-0.3-0.7-0.4c-1.2-0.3-1.9-0.5-2.4-0.7c-0.8-0.3-1.3-0.8-1.7-1.4c-0.4-0.6-0.6-1.3-0.6-1.9
		c0-0.7,0.2-1.4,0.6-2c0.4-0.6,0.9-1,1.5-1.2c0.6-0.2,1.3-0.3,2.2-0.3c1,0,1.9,0.1,2.7,0.3c1.2,0.6,1.9,1.9,1.9,3.9
		c-0.6,0.1-1.1,0.1-1.6,0.1c-0.5,0-1,0-1.4-0.1c0-0.1,0-0.2,0-0.2c0-0.3-0.1-0.6-0.4-0.9c-0.3-0.3-0.6-0.4-0.9-0.4c0,0-0.1,0-0.1,0
		c-0.4,0.1-0.7,0.3-0.9,0.6c-0.1,0.2-0.1,0.3-0.1,0.5c0,0.2,0,0.4,0.1,0.6c0.2,0.4,0.4,0.6,0.9,0.8c2,0.3,3.3,0.9,3.8,1.6
		c0.4,0.7,0.6,1.4,0.6,2.1s-0.1,1.3-0.3,1.9c-0.6,1.5-1.8,2.2-3.7,2.2c0,0-0.1,0-0.2,0s-0.2,0-0.3,0c-1.3,0-2.3-0.4-3.2-1.1
		c-0.8-0.7-1.3-1.7-1.3-3v-0.1C120.4,46.8,120.9,46.8,121.4,46.8z"/>
	<path class="st1" d="M138,43.8h1.1c0.7,0,1.1,0,1.3,0.1c0.2,0.6,0.2,1.2,0.2,1.7c0,1.7-0.6,3.1-1.9,4.2c-0.9,0.7-1.9,1.1-3,1.1
		c-0.3,0-0.7,0.1-1.1,0.1s-0.9-0.1-1.5-0.2c-0.6-0.1-1.2-0.5-1.8-1c-0.6-0.5-0.9-1.2-1-2.1c-0.1-1.4-0.1-3-0.1-4.8
		c0-1.8,0-3.2,0-4.1c0-0.9,0-1.4,0-1.7c0-0.3,0.1-0.6,0.3-1.1c0.3-0.9,0.7-1.6,1.3-2.1c0.3-0.2,0.7-0.4,1.2-0.6
		c0.6-0.2,1.1-0.3,1.6-0.3c1.4,0,2.5,0.2,3.2,0.7c2,1.3,3,2.8,3,4.8c0,0.6-0.1,1.2-0.3,1.9c-0.4,0.1-0.8,0.1-1.4,0.1
		s-1.3-0.1-2.1-0.2c0-0.2-0.1-0.5-0.1-0.8c0-0.4,0-0.7-0.1-0.9c-0.1-0.7-0.3-1.1-0.7-1.3c-0.2-0.1-0.4-0.2-0.6-0.2
		c-0.2,0-0.4,0-0.8,0.1c-0.3,0.1-0.6,0.2-0.7,0.3c0,0-0.1,0.1-0.1,0.2c-0.1,0.4-0.2,1.5-0.2,3.2s0,3,0.1,3.7c0.1,1.3,0.6,2,1.4,2.2
		c0.1,0,0.2,0,0.3,0c1.1,0,1.6-0.7,1.7-2.2c0-0.6,0-0.9,0.1-1.1C137.3,43.7,137.5,43.8,138,43.8z"/>
	<path class="st1" d="M148.4,50.6l-1,0.1c-0.2-0.1-0.3-0.2-0.3-0.4c0-0.2,0-0.4,0-0.6c0-0.2,0-0.3,0-0.4c-0.4,0.4-0.9,0.7-1.5,1
		c-0.6,0.3-1.2,0.4-1.7,0.4c-0.8,0-1.4-0.4-2-1.1c-1-1.4-1.5-3.1-1.5-5.4c0-1.6,0.4-2.9,1.2-4c0.8-1,1.7-1.6,2.9-1.6
		c0.5,0,0.9,0,1.1,0s0.5,0.1,0.8,0.3c0.3,0.2,0.5,0.4,0.6,0.8c0-0.2,0-0.4,0-0.7c0-0.3,0.1-0.4,0.1-0.5c0,0,0.4,0,1.2,0
		c1.1,0,1.9,0.1,2.4,0.1c0,0.3,0,0.5,0,0.6v0.2c0,0.4,0,1,0,1.7l0,5.7c0,1.3,0,2.1,0,2.5c0,0.4,0,0.7,0,0.9c0,0.2-0.1,0.4-0.3,0.4
		H150L148.4,50.6z M145.8,41.9c-0.6,0-1.1,0.1-1.5,0.4c-0.4,0.3-0.6,0.6-0.7,1c-0.1,0.4-0.1,0.9-0.1,1.5c0,0.6,0.2,1.2,0.6,1.7
		c0.4,0.5,0.9,0.8,1.6,0.8c0.5,0,0.9-0.1,1.2-0.4c0.2-0.2,0.3-0.5,0.3-0.9c0-0.4,0-0.8,0-1.1v-0.5c0-1.2-0.1-2-0.2-2.2
		C146.8,42,146.4,41.9,145.8,41.9z"/>
	<path class="st1" d="M153,38.6l1.3-0.1c0.1,0,0.2,0,0.3,0.1c0,0.2,0,0.3,0,0.4c0,0.1,0,0.2,0,0.4c0.1-0.1,0.5-0.2,1.1-0.5
		c0.8-0.2,1.5-0.4,2.2-0.4s1.1,0,1.2,0v4.3c-0.8-0.3-1.4-0.4-1.6-0.4c-0.4,0-0.7-0.1-1.1-0.1c-0.4,0-0.8,0.1-1.1,0.2
		c-0.5,0.2-0.7,0.6-0.7,1.4c0,0,0,0.6,0,1.6c0,1,0,2.6,0,4.9v0.1c-0.1,0.1-0.5,0.1-1,0.1l-1.5,0c-0.3,0-0.5,0-0.7,0l-0.1-9.4
		c0-1.5,0-2.4,0-2.7c0.3,0,0.6,0,0.8,0L153,38.6z"/>
	<path class="st1" d="M160.8,38.6l1.1-0.1c0.1,0,0.2,0,0.3,0.1c0,0.2,0,0.5,0,0.8v0.5c0.3-0.2,0.5-0.3,0.6-0.4
		c0.8-0.6,1.6-0.8,2.5-0.8c0.9,0,1.7,0.3,2.3,0.8c0.1,0.1,0.2,0.2,0.2,0.4c0.4-0.2,0.5-0.3,0.6-0.3c0.8-0.6,1.6-0.8,2.5-0.8
		c0.9,0,1.7,0.3,2.3,0.8c0.3,0.3,0.5,1.1,0.5,2.4c0,0.6,0,1.3,0,2l-0.1,5.4c0,0.6,0,1.1,0,1.4c-0.4,0.1-1.4,0.1-3,0.1
		c0-0.5,0-1.4,0-2.7c0-1.3,0-2.1,0-2.5c0-0.3,0-0.6,0-0.8c0-0.2,0-0.3,0-0.4c0-0.1,0-0.2,0-0.4c0-0.2,0-0.3-0.1-0.4
		c0-0.1-0.1-0.2-0.1-0.3c-0.2-0.5-0.6-0.7-1.2-0.7c-0.4,0-0.7,0.1-1,0.4c0,0.2,0,0.4,0,0.7l-0.1,5.6c0,0.6,0,1.1,0,1.5
		c-0.4,0.1-1.4,0.1-3,0.1c0-0.5,0-1.4,0-2.7c0-1.3,0-2.1,0-2.5c0-0.3,0-0.6,0-0.8c0-0.2,0-0.3,0-0.4c0-0.1,0-0.2,0-0.4
		c0-0.2,0-0.3-0.1-0.4c0-0.1-0.1-0.2-0.1-0.3c-0.2-0.5-0.6-0.7-1.3-0.7c-0.3,0-0.6,0.1-0.9,0.4c-0.3,0.2-0.5,0.6-0.5,1.1
		c0,0.2,0,0.5,0,0.8l0.1,4c0,0.8,0,1.3-0.1,1.7v0.1c-0.1,0.1-0.5,0.1-0.9,0.1l-1.3,0c-0.3,0-0.5,0-0.7,0l-0.1-9.4c0-1.5,0-2.4,0-2.7
		c0.3,0,0.6,0,0.8,0L160.8,38.6z"/>
	<path class="st1" d="M179.9,51l-2.2-0.1c-0.5-0.1-0.9-0.2-1.3-0.4c-0.8-0.6-1.4-1.4-1.7-2.6c-0.3-1.1-0.5-2.3-0.5-3.5
		c0-0.2,0-0.4,0-0.6c0.1-1.6,0.3-2.7,0.5-3.4c0.4-0.9,1.2-1.6,2.4-1.9c0.6-0.2,1.3-0.3,1.9-0.3s1.2,0.1,1.7,0.2c2.2,0.4,3.3,2,3.3,5
		c0,0.3,0,0.7,0,1c-0.4,0.1-1.1,0.2-2.3,0.2c-1.2,0-2.1,0.1-2.7,0.1c-0.6,0-1.1,0-1.4-0.1v0.8l0,0.5c0,0.1,0,0.2,0,0.2
		c0,0,0,0.1,0,0.2c0,0.1,0,0.2,0,0.2c0.3,0.8,0.7,1.4,1.4,1.6c0.1,0,0.3,0,0.6,0c0.2,0,0.5-0.1,0.8-0.4c0.3-0.3,0.5-0.8,0.5-1.5
		c0,0,0-0.1,0-0.2c0,0,0.1,0,0.3,0l1.9,0c0.5,0,0.8,0,0.9,0.1c-0.2,2.3-0.4,3.5-0.7,3.8c-0.4,0.6-1.1,0.9-1.9,1
		C180.7,50.9,180.3,51,179.9,51z M179.8,42.7l1.3,0c0.1,0,0.1,0,0.2,0c0,0,0-0.1,0-0.1v-0.2c0-0.7-0.3-1.2-0.9-1.6
		c-0.3-0.2-0.6-0.2-1.1-0.2c-1,0-1.6,0.5-1.7,1.6c0,0.1,0,0.2,0,0.3c0,0.1,0,0.2,0.1,0.2s0.4,0,1.1,0
		C179.4,42.7,179.8,42.7,179.8,42.7z"/>
	<path class="st1" d="M185.9,38.6l1.1-0.1c0.1,0,0.2,0,0.3,0.1c0,0.2,0,0.5,0,0.8v0.5c0.3-0.2,0.5-0.3,0.6-0.4
		c0.8-0.6,1.6-0.8,2.5-0.8c0.9,0,1.7,0.3,2.3,0.8c0.3,0.3,0.5,1.1,0.5,2.4c0,0.6,0,1.3,0,2l-0.1,5.4c0,0.6,0,1.1,0,1.4
		c-0.4,0.1-1.4,0.1-3,0.1c0-0.5,0-1.4,0-2.7c0-1.3,0-2.1,0-2.5c0-0.3,0-0.6,0-0.8c0-0.2,0-0.3,0-0.4c0-0.1,0-0.2,0-0.4
		c0-0.2,0-0.3-0.1-0.4c0-0.1-0.1-0.2-0.1-0.3c-0.2-0.5-0.6-0.7-1.3-0.7c-0.3,0-0.6,0.1-0.9,0.4c-0.3,0.2-0.5,0.6-0.5,1.1
		c0,0.2,0,0.5,0,0.8l0.1,4c0,0.8,0,1.3-0.1,1.7v0.1c-0.1,0.1-0.5,0.1-0.9,0.1l-1.3,0c-0.3,0-0.5,0-0.7,0l-0.1-9.4c0-1.5,0-2.4,0-2.7
		c0.3,0,0.6,0,0.8,0L185.9,38.6z"/>
	<path class="st1" d="M211.7,48.2l0.1,1.6c0,0.2,0,0.4-0.1,0.5c-0.1,0.1-0.1,0.2-0.2,0.2c-0.1,0-0.1,0-0.3,0h-0.2
		c-0.1,0-0.2,0-0.4,0l-4.9,0.1c-1.1,0-2.6,0-4.3,0v-0.4c0.1-5,0.2-7.7,0.2-8.4l-0.1-8.2c0.3-0.1,0.9-0.2,1.8-0.2
		c0.9,0,1.6,0.1,2.1,0.3c0,0.7,0,1.7,0,2.9l0.1,8.9c0,0.5,0,1,0,1.3v0c0.1,0,0.3,0,0.7,0l5.3,0.2c0.2,0,0.3,0,0.3,0L211.7,48.2z"/>
	<path class="st1" d="M211.8,34l2.2,0.1c0.2,0,0.4,0,0.6,0v3.2l0,1.4c0.4,0,1.6-0.1,3.7-0.2c0.1,0.2,0.2,0.5,0.2,1l-0.1,1.7
		c0,0.1,0,0.3,0,0.4h-3.8c0,2.3,0,3.9,0,4.9c0.3,0.4,0.7,0.7,1.4,0.8c0.7,0.1,1.2,0.2,1.5,0.2c0.4,0,0.6,0,0.8,0
		c0.1,0.8,0.2,1.5,0.2,2c0,0.5-0.1,1-0.2,1.3c-0.4,0-0.7,0-1.1,0c-3.1,0-4.9-0.7-5.5-2.2c-0.3-1.6-0.4-3.6-0.4-6.1
		c0-0.3,0-0.6,0-0.8c-0.3,0-0.9,0-1.7,0l0.1-3c0.4,0,1,0,1.7,0l0-2.8c0-0.8,0-1.4,0.1-1.9C211.5,34,211.7,34,211.8,34z"/>
	<path class="st1" d="M224.7,36l0.1-2.1v-0.3c0-0.1,0.4-0.1,1.3-0.1s1.4,0,1.8,0.1v1.6l0.2,12.9c0,1,0,1.8,0,2.5l-1.9,0
		c-0.5,0-1,0-1.4-0.1c0,0,0-0.1,0-0.2l0-0.8c-0.1-0.2-0.2-0.2-0.2-0.1c-0.4,0.7-1,1.1-1.8,1.1c-0.1,0-0.3,0-0.5,0
		c-0.7,0-1.3-0.2-1.8-0.5c-0.5-0.3-0.9-0.6-1.2-1c-0.3-0.4-0.5-0.9-0.7-1.6c-0.2-1-0.4-2.1-0.4-3.5c0-2.9,0.6-4.6,1.9-5.1
		c0.6-0.2,1.2-0.3,1.7-0.3c1.8,0,2.8,0.2,2.9,0.7l0-2.5C224.7,36.4,224.7,36.1,224.7,36z M221.1,43c-0.1,0.3-0.2,0.8-0.2,1.6
		c0,0.7,0.2,1.4,0.6,2.1c0.4,0.6,1,0.9,1.7,0.9c0.7,0,1.2-0.3,1.4-0.8c0.2-0.6,0.3-1.5,0.3-2.7s-0.1-2-0.2-2.3
		c-0.2-0.3-0.6-0.4-1.2-0.4C222,41.3,221.3,41.9,221.1,43z"/>
	<path class="st1" d="M236.2,50.6l-1,0.1c-0.2-0.1-0.3-0.2-0.3-0.4c0-0.2,0-0.4,0-0.6c0-0.2,0-0.3,0-0.4c-0.4,0.4-0.9,0.7-1.5,1
		c-0.6,0.3-1.2,0.4-1.7,0.4c-0.8,0-1.4-0.4-2-1.1c-1-1.4-1.5-3.1-1.5-5.4c0-1.6,0.4-2.9,1.2-4c0.8-1,1.7-1.6,2.9-1.6
		c0.5,0,0.9,0,1.1,0c0.2,0,0.5,0.1,0.8,0.3c0.3,0.2,0.5,0.4,0.6,0.8c0-0.2,0-0.4,0-0.7c0-0.3,0.1-0.4,0.1-0.5c0,0,0.4,0,1.2,0
		c1.1,0,1.9,0.1,2.4,0.1c0,0.3,0,0.5,0,0.6v0.2c0,0.4,0,1,0,1.7l0,5.7c0,1.3,0,2.1,0,2.5c0,0.4,0,0.7,0,0.9c0,0.2-0.1,0.4-0.3,0.4
		h-0.3L236.2,50.6z M233.6,41.9c-0.6,0-1.1,0.1-1.5,0.4c-0.4,0.3-0.6,0.6-0.7,1c-0.1,0.4-0.1,0.9-0.1,1.5c0,0.6,0.2,1.2,0.6,1.7
		c0.4,0.5,0.9,0.8,1.6,0.8c0.5,0,0.9-0.1,1.2-0.4c0.2-0.2,0.3-0.5,0.3-0.9c0-0.4,0-0.8,0-1.1v-0.5c0-1.2-0.1-2-0.2-2.2
		C234.5,42,234.2,41.9,233.6,41.9z"/>
	<path class="st1" d="M239,50.6c0-0.3-0.1-0.7-0.1-1.3l0-1.5c0.3-0.1,0.8-0.2,1.6-0.2c0.8,0,1.2,0,1.4,0.1l0,0.6
		c-0.1,1.2-0.1,2-0.1,2.2v0h0L239,50.6L239,50.6z"/>
	<g>
		<line class="st1" x1="91.7" y1="111.1" x2="235.5" y2="111.1"/>
		<rect x="91.7" y="110.8" class="st1" width="143.8" height="0.5"/>
	</g>
	<g>
		<path d="M131.6,141.8c0,0.1-0.1,0.2-0.2,0.2c-0.1,0-0.1,0.1-0.1,0.1c-0.1,0-0.2-0.1-0.3-0.3l-2.1-4.1v7.2c0,0.1,0,0.2-0.1,0.2
			s-0.1,0.1-0.2,0.1c-0.1,0-0.1,0-0.2-0.1s-0.1-0.1-0.1-0.2v-8.3c0-0.1,0-0.2,0.1-0.2c0.1,0,0.1-0.1,0.2-0.1c0.1,0,0.2,0.1,0.3,0.2
			c0.1,0.1,0.2,0.2,0.2,0.3l2.2,4.3l2.2-4.3c0.1-0.1,0.1-0.2,0.2-0.3c0.1-0.1,0.2-0.2,0.3-0.2c0.1,0,0.2,0,0.2,0.1
			c0.1,0,0.1,0.1,0.1,0.2v8.3c0,0.1,0,0.2-0.1,0.2s-0.1,0.1-0.2,0.1c-0.1,0-0.2,0-0.2-0.1c-0.1,0-0.1-0.1-0.1-0.2v-7.2L131.6,141.8z
			"/>
		<path d="M136.8,139.4c0.4,0,0.7,0.1,1,0.2c0.3,0.1,0.5,0.3,0.6,0.5s0.3,0.5,0.4,0.7c0.1,0.3,0.1,0.6,0.1,0.9v3.2
			c0,0.1,0,0.1-0.1,0.2c-0.1,0.1-0.1,0.1-0.2,0.1c-0.1,0-0.1,0-0.2-0.1c-0.1-0.1-0.1-0.1-0.1-0.2v-0.6c-0.2,0.2-0.5,0.4-0.8,0.6
			s-0.6,0.3-1.1,0.3c-0.2,0-0.5,0-0.7-0.1c-0.2-0.1-0.4-0.2-0.5-0.3c-0.2-0.1-0.3-0.3-0.4-0.5s-0.1-0.4-0.1-0.7
			c0-0.3,0.1-0.6,0.2-0.8c0.1-0.2,0.3-0.4,0.6-0.5c0.2-0.1,0.5-0.2,0.9-0.3c0.3,0,0.7-0.1,1.1-0.1h0.7v-0.3c0-0.2,0-0.4-0.1-0.6
			c-0.1-0.2-0.1-0.4-0.3-0.6c-0.1-0.2-0.3-0.3-0.5-0.4c-0.2-0.1-0.4-0.2-0.7-0.2c-0.2,0-0.4,0-0.5,0.1c-0.1,0-0.3,0.1-0.4,0.1
			c-0.1,0-0.2,0.1-0.2,0.1c-0.1,0-0.1,0.1-0.2,0.1c-0.1,0-0.2,0-0.2-0.1c0-0.1-0.1-0.1-0.1-0.2c0-0.1,0-0.1,0.1-0.2s0.2-0.1,0.4-0.2
			c0.1-0.1,0.3-0.1,0.5-0.1S136.6,139.4,136.8,139.4z M138.3,142.5h-0.6c-0.3,0-0.6,0-0.9,0c-0.3,0-0.5,0.1-0.7,0.1
			c-0.2,0.1-0.4,0.2-0.5,0.3s-0.2,0.3-0.2,0.6c0,0.4,0.1,0.7,0.3,0.8c0.2,0.2,0.5,0.3,0.8,0.3c0.2,0,0.4,0,0.6-0.1s0.4-0.2,0.6-0.3
			c0.2-0.1,0.3-0.3,0.4-0.4s0.2-0.3,0.2-0.4V142.5z"/>
		<path d="M139.9,136.8c0.1,0,0.2,0,0.3,0.1c0.1,0.1,0.1,0.2,0.1,0.3c0,0.1,0,0.2-0.1,0.3s-0.2,0.1-0.3,0.1c-0.1,0-0.2,0-0.3-0.1
			c-0.1-0.1-0.1-0.2-0.1-0.3c0-0.1,0-0.2,0.1-0.3C139.6,136.8,139.7,136.8,139.9,136.8z M139.9,139.5c0.1,0,0.2,0,0.2,0.1
			c0.1,0,0.1,0.1,0.1,0.2v5.2c0,0.1,0,0.1-0.1,0.2c-0.1,0.1-0.1,0.1-0.2,0.1s-0.2,0-0.2-0.1c-0.1-0.1-0.1-0.1-0.1-0.2v-5.2
			c0-0.1,0-0.1,0.1-0.2C139.7,139.5,139.8,139.5,139.9,139.5z"/>
		<path d="M143,145.2c-0.4,0-0.7-0.1-1-0.2c-0.3-0.1-0.5-0.3-0.7-0.5s-0.3-0.4-0.4-0.7c-0.1-0.3-0.1-0.6-0.1-0.9v-1.4
			c0-0.3,0-0.6,0.1-0.9s0.2-0.5,0.4-0.7c0.2-0.2,0.4-0.4,0.7-0.5c0.3-0.1,0.6-0.2,1-0.2c0.3,0,0.5,0,0.7,0.1
			c0.2,0.1,0.4,0.1,0.5,0.2c0.1,0.1,0.3,0.2,0.3,0.2c0.1,0.1,0.1,0.2,0.1,0.2c0,0.1,0,0.1-0.1,0.2c-0.1,0.1-0.1,0.1-0.2,0.1
			c0,0-0.1,0-0.2-0.1c-0.1,0-0.1-0.1-0.2-0.2c-0.1-0.1-0.2-0.1-0.4-0.2c-0.2,0-0.3-0.1-0.6-0.1c-0.6,0-1,0.1-1.3,0.4
			c-0.3,0.3-0.4,0.7-0.4,1.2v1.4c0,0.5,0.1,0.9,0.4,1.2c0.3,0.3,0.7,0.4,1.3,0.4c0.2,0,0.4,0,0.6-0.1c0.2,0,0.3-0.1,0.4-0.2
			s0.2-0.1,0.2-0.2c0.1-0.1,0.1-0.1,0.2-0.1c0.1,0,0.1,0,0.2,0.1s0.1,0.1,0.1,0.2c0,0.1,0,0.2-0.1,0.2c-0.1,0.1-0.2,0.2-0.3,0.2
			c-0.1,0.1-0.3,0.1-0.5,0.2C143.5,145.2,143.2,145.2,143,145.2z"/>
		<path d="M146.5,139.4c0.4,0,0.7,0.1,1,0.2c0.3,0.1,0.5,0.3,0.6,0.5s0.3,0.5,0.4,0.7c0.1,0.3,0.1,0.6,0.1,0.9v3.2
			c0,0.1,0,0.1-0.1,0.2c-0.1,0.1-0.1,0.1-0.2,0.1c-0.1,0-0.1,0-0.2-0.1c-0.1-0.1-0.1-0.1-0.1-0.2v-0.6c-0.2,0.2-0.5,0.4-0.8,0.6
			s-0.6,0.3-1.1,0.3c-0.2,0-0.5,0-0.7-0.1c-0.2-0.1-0.4-0.2-0.5-0.3c-0.2-0.1-0.3-0.3-0.4-0.5s-0.1-0.4-0.1-0.7
			c0-0.3,0.1-0.6,0.2-0.8c0.1-0.2,0.3-0.4,0.6-0.5c0.2-0.1,0.5-0.2,0.9-0.3c0.3,0,0.7-0.1,1.1-0.1h0.7v-0.3c0-0.2,0-0.4-0.1-0.6
			c-0.1-0.2-0.1-0.4-0.3-0.6c-0.1-0.2-0.3-0.3-0.5-0.4c-0.2-0.1-0.4-0.2-0.7-0.2c-0.2,0-0.4,0-0.5,0.1c-0.1,0-0.3,0.1-0.4,0.1
			c-0.1,0-0.2,0.1-0.2,0.1c-0.1,0-0.1,0.1-0.2,0.1c-0.1,0-0.2,0-0.2-0.1c0-0.1-0.1-0.1-0.1-0.2c0-0.1,0-0.1,0.1-0.2s0.2-0.1,0.4-0.2
			c0.1-0.1,0.3-0.1,0.5-0.1S146.4,139.4,146.5,139.4z M148,142.5h-0.6c-0.3,0-0.6,0-0.9,0c-0.3,0-0.5,0.1-0.7,0.1
			c-0.2,0.1-0.4,0.2-0.5,0.3s-0.2,0.3-0.2,0.6c0,0.4,0.1,0.7,0.3,0.8c0.2,0.2,0.5,0.3,0.8,0.3c0.2,0,0.4,0,0.6-0.1s0.4-0.2,0.6-0.3
			c0.2-0.1,0.3-0.3,0.4-0.4s0.2-0.3,0.2-0.4V142.5z"/>
		<path d="M151.3,139.4c0.3,0,0.6,0.1,0.8,0.2c0.3,0.1,0.5,0.3,0.7,0.5c0.2,0.2,0.4,0.4,0.5,0.7s0.2,0.6,0.2,0.9v1.4
			c0,0.3-0.1,0.6-0.2,0.8c-0.1,0.3-0.3,0.5-0.5,0.7c-0.2,0.2-0.4,0.4-0.7,0.5c-0.3,0.1-0.5,0.2-0.8,0.2c-0.3,0-0.6-0.1-0.8-0.2
			c-0.3-0.1-0.5-0.3-0.7-0.5c-0.2-0.2-0.4-0.4-0.5-0.7s-0.2-0.6-0.2-0.9v-1.4c0-0.3,0.1-0.6,0.2-0.8c0.1-0.3,0.3-0.5,0.5-0.7
			c0.2-0.2,0.4-0.4,0.7-0.5C150.7,139.4,151,139.4,151.3,139.4z M152.9,141.6c0-0.2,0-0.4-0.1-0.6c-0.1-0.2-0.2-0.4-0.4-0.5
			s-0.3-0.3-0.5-0.4c-0.2-0.1-0.4-0.1-0.6-0.1s-0.4,0-0.6,0.1c-0.2,0.1-0.4,0.2-0.5,0.4c-0.1,0.2-0.3,0.3-0.3,0.5
			c-0.1,0.2-0.1,0.4-0.1,0.6v1.4c0,0.2,0,0.4,0.1,0.6c0.1,0.2,0.2,0.4,0.3,0.5c0.1,0.2,0.3,0.3,0.5,0.4c0.2,0.1,0.4,0.1,0.6,0.1
			s0.4,0,0.6-0.1c0.2-0.1,0.4-0.2,0.5-0.4s0.3-0.3,0.4-0.5c0.1-0.2,0.1-0.4,0.1-0.6V141.6z"/>
		<path d="M155.4,142.3c0-0.1,0-0.1,0.1-0.2c0-0.1,0.1-0.1,0.2-0.1h3.1c0.1,0,0.1,0,0.2,0.1c0.1,0.1,0.1,0.1,0.1,0.2s0,0.1-0.1,0.2
			c-0.1,0-0.1,0.1-0.2,0.1h-3.1c-0.1,0-0.1,0-0.2-0.1C155.4,142.4,155.4,142.3,155.4,142.3z"/>
		<path d="M161.6,145.2c-0.1,0-0.1,0-0.2-0.1c-0.1,0-0.1-0.1-0.1-0.2v-8.3c0-0.1,0-0.2,0.1-0.2c0.1,0,0.1-0.1,0.2-0.1
			c0.1,0,0.2,0,0.2,0.1c0.1,0,0.1,0.1,0.1,0.2v8h3.6c0.1,0,0.1,0,0.2,0.1s0.1,0.1,0.1,0.2c0,0.1,0,0.1-0.1,0.2s-0.1,0.1-0.2,0.1
			H161.6z"/>
		<path d="M167.4,139.4c0.4,0,0.7,0.1,1,0.2c0.3,0.1,0.5,0.3,0.6,0.5s0.3,0.5,0.4,0.7c0.1,0.3,0.1,0.6,0.1,0.9v3.2
			c0,0.1,0,0.1-0.1,0.2c-0.1,0.1-0.1,0.1-0.2,0.1c-0.1,0-0.1,0-0.2-0.1c-0.1-0.1-0.1-0.1-0.1-0.2v-0.6c-0.2,0.2-0.5,0.4-0.8,0.6
			s-0.6,0.3-1.1,0.3c-0.2,0-0.5,0-0.7-0.1c-0.2-0.1-0.4-0.2-0.5-0.3c-0.2-0.1-0.3-0.3-0.4-0.5s-0.1-0.4-0.1-0.7
			c0-0.3,0.1-0.6,0.2-0.8c0.1-0.2,0.3-0.4,0.6-0.5c0.2-0.1,0.5-0.2,0.9-0.3c0.3,0,0.7-0.1,1.1-0.1h0.7v-0.3c0-0.2,0-0.4-0.1-0.6
			c-0.1-0.2-0.1-0.4-0.3-0.6c-0.1-0.2-0.3-0.3-0.5-0.4c-0.2-0.1-0.4-0.2-0.7-0.2c-0.2,0-0.4,0-0.5,0.1c-0.1,0-0.3,0.1-0.4,0.1
			c-0.1,0-0.2,0.1-0.2,0.1c-0.1,0-0.1,0.1-0.2,0.1c-0.1,0-0.2,0-0.2-0.1c0-0.1-0.1-0.1-0.1-0.2c0-0.1,0-0.1,0.1-0.2s0.2-0.1,0.4-0.2
			c0.1-0.1,0.3-0.1,0.5-0.1S167.2,139.4,167.4,139.4z M168.9,142.5h-0.6c-0.3,0-0.6,0-0.9,0c-0.3,0-0.5,0.1-0.7,0.1
			c-0.2,0.1-0.4,0.2-0.5,0.3s-0.2,0.3-0.2,0.6c0,0.4,0.1,0.7,0.3,0.8c0.2,0.2,0.5,0.3,0.8,0.3c0.2,0,0.4,0,0.6-0.1s0.4-0.2,0.6-0.3
			c0.2-0.1,0.3-0.3,0.4-0.4s0.2-0.3,0.2-0.4V142.5z"/>
		<path d="M176.1,138.4c-0.1-0.5-0.3-0.9-0.6-1.1s-0.7-0.4-1.3-0.4c-0.6,0-1,0.2-1.3,0.5c-0.3,0.3-0.5,0.8-0.5,1.5v3.8
			c0,0.7,0.2,1.2,0.5,1.5c0.3,0.3,0.8,0.5,1.3,0.5s1-0.2,1.4-0.5c0.3-0.3,0.5-0.8,0.5-1.5v-1.6h-1.8c-0.1,0-0.1,0-0.2-0.1
			c0-0.1-0.1-0.1-0.1-0.2s0-0.1,0.1-0.2c0-0.1,0.1-0.1,0.2-0.1h2.1c0.1,0,0.1,0,0.2,0.1s0.1,0.1,0.1,0.2v1.9c0,0.5-0.1,0.9-0.2,1.2
			c-0.1,0.3-0.3,0.6-0.5,0.8c-0.2,0.2-0.5,0.3-0.8,0.4c-0.3,0.1-0.6,0.1-1,0.1c-0.3,0-0.7,0-1-0.1c-0.3-0.1-0.6-0.2-0.8-0.4
			c-0.2-0.2-0.4-0.5-0.5-0.8c-0.1-0.3-0.2-0.7-0.2-1.2v-3.8c0-0.5,0.1-0.9,0.2-1.2c0.1-0.3,0.3-0.6,0.5-0.8c0.2-0.2,0.5-0.3,0.8-0.4
			c0.3-0.1,0.6-0.1,1-0.1c0.4,0,0.7,0.1,1,0.2c0.3,0.1,0.6,0.2,0.8,0.4s0.4,0.4,0.5,0.6c0.1,0.3,0.2,0.5,0.2,0.8
			c0,0.1,0,0.2-0.1,0.2c-0.1,0-0.1,0.1-0.2,0.1c-0.1,0-0.1,0-0.2-0.1C176.1,138.6,176.1,138.5,176.1,138.4z"/>
		<path d="M179.5,145.2c-0.3,0-0.6-0.1-0.9-0.2c-0.3-0.1-0.5-0.3-0.7-0.5c-0.2-0.2-0.4-0.4-0.5-0.7c-0.1-0.3-0.2-0.5-0.2-0.8v-3.3
			c0-0.1,0-0.1,0.1-0.2c0.1-0.1,0.1-0.1,0.2-0.1c0.1,0,0.1,0,0.2,0.1c0.1,0.1,0.1,0.1,0.1,0.2v3.3c0,0.2,0,0.4,0.1,0.6
			c0.1,0.2,0.2,0.4,0.3,0.5c0.1,0.2,0.3,0.3,0.5,0.4c0.2,0.1,0.4,0.1,0.6,0.1c0.2,0,0.4,0,0.6-0.1s0.4-0.2,0.5-0.4
			c0.1-0.2,0.3-0.3,0.3-0.5c0.1-0.2,0.1-0.4,0.1-0.6v-3.3c0-0.1,0-0.1,0.1-0.2c0.1,0,0.1-0.1,0.2-0.1c0.1,0,0.2,0,0.2,0.1
			c0.1,0,0.1,0.1,0.1,0.2v3.3c0,0.3-0.1,0.6-0.2,0.8c-0.1,0.3-0.3,0.5-0.5,0.7c-0.2,0.2-0.4,0.4-0.7,0.5
			C180.1,145.2,179.8,145.2,179.5,145.2z"/>
		<path d="M184,139.4c0.4,0,0.7,0.1,1,0.2c0.3,0.1,0.5,0.3,0.6,0.5s0.3,0.5,0.4,0.7c0.1,0.3,0.1,0.6,0.1,0.9v3.2
			c0,0.1,0,0.1-0.1,0.2c-0.1,0.1-0.1,0.1-0.2,0.1c-0.1,0-0.1,0-0.2-0.1c-0.1-0.1-0.1-0.1-0.1-0.2v-0.6c-0.2,0.2-0.5,0.4-0.8,0.6
			s-0.6,0.3-1.1,0.3c-0.2,0-0.5,0-0.7-0.1c-0.2-0.1-0.4-0.2-0.5-0.3c-0.2-0.1-0.3-0.3-0.4-0.5s-0.1-0.4-0.1-0.7
			c0-0.3,0.1-0.6,0.2-0.8c0.1-0.2,0.3-0.4,0.6-0.5c0.2-0.1,0.5-0.2,0.9-0.3c0.3,0,0.7-0.1,1.1-0.1h0.7v-0.3c0-0.2,0-0.4-0.1-0.6
			c-0.1-0.2-0.1-0.4-0.3-0.6c-0.1-0.2-0.3-0.3-0.5-0.4c-0.2-0.1-0.4-0.2-0.7-0.2c-0.2,0-0.4,0-0.5,0.1c-0.1,0-0.3,0.1-0.4,0.1
			c-0.1,0-0.2,0.1-0.2,0.1c-0.1,0-0.1,0.1-0.2,0.1c-0.1,0-0.2,0-0.2-0.1c0-0.1-0.1-0.1-0.1-0.2c0-0.1,0-0.1,0.1-0.2s0.2-0.1,0.4-0.2
			c0.1-0.1,0.3-0.1,0.5-0.1S183.8,139.4,184,139.4z M185.5,142.5h-0.6c-0.3,0-0.6,0-0.9,0c-0.3,0-0.5,0.1-0.7,0.1
			c-0.2,0.1-0.4,0.2-0.5,0.3s-0.2,0.3-0.2,0.6c0,0.4,0.1,0.7,0.3,0.8c0.2,0.2,0.5,0.3,0.8,0.3c0.2,0,0.4,0,0.6-0.1s0.4-0.2,0.6-0.3
			c0.2-0.1,0.3-0.3,0.4-0.4s0.2-0.3,0.2-0.4V142.5z"/>
		<path d="M187,139.5c0.1,0,0.2,0,0.2,0.1c0.1,0,0.1,0.1,0.1,0.2v6c0,0.3,0,0.6-0.1,0.9c-0.1,0.3-0.1,0.5-0.3,0.7
			c-0.1,0.2-0.3,0.4-0.5,0.5c-0.2,0.1-0.4,0.2-0.7,0.2c-0.1,0-0.2,0-0.2-0.1c-0.1-0.1-0.1-0.1-0.1-0.2c0-0.1,0-0.1,0.1-0.2
			c0.1,0,0.1-0.1,0.2-0.1c0.2,0,0.4,0,0.5-0.1s0.2-0.2,0.3-0.4s0.1-0.3,0.1-0.5c0-0.2,0-0.4,0-0.7v-6c0-0.1,0-0.1,0.1-0.2
			C186.9,139.5,187,139.5,187,139.5z M187,136.8c0.1,0,0.2,0,0.3,0.1c0.1,0.1,0.1,0.2,0.1,0.3c0,0.1,0,0.2-0.1,0.3s-0.2,0.1-0.3,0.1
			c-0.1,0-0.2,0-0.3-0.1c-0.1-0.1-0.1-0.2-0.1-0.3c0-0.1,0-0.2,0.1-0.3C186.8,136.8,186.9,136.8,187,136.8z"/>
		<path d="M188.4,136.8c0.1,0,0.2,0,0.3,0.1c0.1,0.1,0.1,0.2,0.1,0.3c0,0.1,0,0.2-0.1,0.3s-0.2,0.1-0.3,0.1c-0.1,0-0.2,0-0.3-0.1
			c-0.1-0.1-0.1-0.2-0.1-0.3c0-0.1,0-0.2,0.1-0.3C188.1,136.8,188.2,136.8,188.4,136.8z M188.4,139.5c0.1,0,0.2,0,0.2,0.1
			c0.1,0,0.1,0.1,0.1,0.2v5.2c0,0.1,0,0.1-0.1,0.2c-0.1,0.1-0.1,0.1-0.2,0.1s-0.2,0-0.2-0.1c-0.1-0.1-0.1-0.1-0.1-0.2v-5.2
			c0-0.1,0-0.1,0.1-0.2C188.2,139.5,188.3,139.5,188.4,139.5z"/>
		<path d="M191.6,139.9c-0.2,0-0.4,0-0.6,0.1c-0.2,0.1-0.4,0.2-0.5,0.4s-0.3,0.3-0.4,0.6s-0.1,0.5-0.1,0.7v3.2c0,0.1,0,0.1-0.1,0.2
			c-0.1,0.1-0.1,0.1-0.2,0.1s-0.2,0-0.2-0.1c-0.1-0.1-0.1-0.1-0.1-0.2v-5.2c0-0.1,0-0.1,0.1-0.2c0.1,0,0.1-0.1,0.2-0.1
			c0.1,0,0.1,0,0.2,0.1c0.1,0,0.1,0.1,0.1,0.2v0.6c0.1-0.2,0.3-0.4,0.6-0.6s0.6-0.3,1-0.3h0.4c0.1,0,0.1,0,0.2,0.1s0.1,0.1,0.1,0.2
			c0,0.1,0,0.1-0.1,0.2s-0.1,0.1-0.2,0.1H191.6z"/>
		<path d="M193.9,139.4c0.4,0,0.7,0.1,1,0.2c0.3,0.1,0.5,0.3,0.6,0.5s0.3,0.5,0.4,0.7c0.1,0.3,0.1,0.6,0.1,0.9v3.2
			c0,0.1,0,0.1-0.1,0.2c-0.1,0.1-0.1,0.1-0.2,0.1c-0.1,0-0.1,0-0.2-0.1c-0.1-0.1-0.1-0.1-0.1-0.2v-0.6c-0.2,0.2-0.5,0.4-0.8,0.6
			s-0.6,0.3-1.1,0.3c-0.2,0-0.5,0-0.7-0.1c-0.2-0.1-0.4-0.2-0.5-0.3c-0.2-0.1-0.3-0.3-0.4-0.5s-0.1-0.4-0.1-0.7
			c0-0.3,0.1-0.6,0.2-0.8c0.1-0.2,0.3-0.4,0.6-0.5c0.2-0.1,0.5-0.2,0.9-0.3c0.3,0,0.7-0.1,1.1-0.1h0.7v-0.3c0-0.2,0-0.4-0.1-0.6
			c-0.1-0.2-0.1-0.4-0.3-0.6c-0.1-0.2-0.3-0.3-0.5-0.4c-0.2-0.1-0.4-0.2-0.7-0.2c-0.2,0-0.4,0-0.5,0.1c-0.1,0-0.3,0.1-0.4,0.1
			c-0.1,0-0.2,0.1-0.2,0.1c-0.1,0-0.1,0.1-0.2,0.1c-0.1,0-0.2,0-0.2-0.1c0-0.1-0.1-0.1-0.1-0.2c0-0.1,0-0.1,0.1-0.2s0.2-0.1,0.4-0.2
			c0.1-0.1,0.3-0.1,0.5-0.1S193.7,139.4,193.9,139.4z M195.4,142.5h-0.6c-0.3,0-0.6,0-0.9,0c-0.3,0-0.5,0.1-0.7,0.1
			c-0.2,0.1-0.4,0.2-0.5,0.3s-0.2,0.3-0.2,0.6c0,0.4,0.1,0.7,0.3,0.8c0.2,0.2,0.5,0.3,0.8,0.3c0.2,0,0.4,0,0.6-0.1s0.4-0.2,0.6-0.3
			c0.2-0.1,0.3-0.3,0.4-0.4s0.2-0.3,0.2-0.4V142.5z"/>
	</g>
	<path class="st1" d="M111.9,38.6l1.1-0.1c0.1,0,0.2,0,0.3,0.1c0,0.2,0,0.5,0,0.8v0.5c0.3-0.2,0.5-0.3,0.6-0.4
		c0.8-0.6,1.6-0.8,2.5-0.8c0.9,0,1.7,0.3,2.3,0.8c0.3,0.3,0.5,1.1,0.5,2.4c0,0.6,0,1.3,0,2l-0.1,5.4c0,0.6,0,1.1,0,1.4
		c-0.4,0.1-1.4,0.1-3,0.1c0-0.5,0-1.4,0-2.7c0-1.3,0-2.1,0-2.5c0-0.3,0-0.6,0-0.8c0-0.2,0-0.3,0-0.4c0-0.1,0-0.2,0-0.4
		c0-0.2,0-0.3-0.1-0.4c0-0.1-0.1-0.2-0.1-0.3c-0.2-0.5-0.6-0.7-1.3-0.7c-0.3,0-0.6,0.1-0.9,0.4c-0.3,0.2-0.5,0.6-0.5,1.1
		c0,0.2,0,0.5,0,0.8l0.1,4c0,0.8,0,1.3-0.1,1.7v0.1c-0.1,0.1-0.5,0.1-0.9,0.1l-1.3,0c-0.3,0-0.5,0-0.7,0l-0.1-9.4c0-1.5,0-2.4,0-2.7
		c0.3,0,0.6,0,0.8,0L111.9,38.6z"/>
</g>
<g id="Capa_3">
	<circle class="st2" cx="476.8" cy="362.4" r="78.9"/>
	<g>
		<path d="M476.6,419.5c-1.5-4.5-18.8-12.1-30.9-16.6c-12.1-4.5-14.3-15.8-14.3-15.8l-2.3,3.8c-6-6.8,3.8-28.6,3.8-28.6
			c0,9,8.3,20.3,8.3,20.3l-3,1.5c7.5,17.3,34.7,15.1,34.7,15.1h7.8c0,0,27.1,2.3,34.7-15.1l-3-1.5c0,0,8.3-11.3,8.3-20.3
			c0,0,9.8,21.8,3.8,28.6l-2.3-3.8c0,0-2.3,11.3-14.3,15.8c-12.1,4.5-29.4,12.1-30.9,16.6H476.6z"/>
		<polyline points="469.7,390.7 470.6,386.2 471.5,334.8 436.3,334.8 430,341.1 432.7,324.9 471.5,324.9 481.8,324.9 520.6,324.9 
			523.3,341.1 517,334.8 481.8,334.8 482.7,386.2 483.6,390.7 469.2,390.7 		"/>
	</g>
	
		<text transform="matrix(1 0 0 1 353.0029 477.3809)" style="font-family:'LondrinaSolid-Regular'; font-size:38.5355px; letter-spacing:-1;">TransCarmen Ltda.</text>
	<line class="st3" x1="351.5" y1="483.4" x2="602" y2="483.4"/>
	<text transform="matrix(1 0 0 1 411.8701 505.0781)" style="font-family:'Dosis-Light'; font-size:21.6762px; letter-spacing:-1;">Maicao - La Guajira</text>
</g>
</svg>
